<mxfile host="app.diagrams.net" agent="Mozilla/5.0 (Windows NT 10.0; Win64; x64) AppleWebKit/537.36 (KHTML, like Gecko) Chrome/131.0.0.0 Safari/537.36" version="24.8.8">
  <diagram name="Side-1" id="gZaglCaNcyMVLHRKLaEb">
    <mxGraphModel dx="683" dy="371" grid="1" gridSize="5" guides="1" tooltips="1" connect="1" arrows="1" fold="1" page="1" pageScale="1" pageWidth="827" pageHeight="1169" math="0" shadow="0">
      <root>
        <mxCell id="0" />
        <mxCell id="1" parent="0" />
        <mxCell id="X28_V8tub5rkXU_Ef_fL-1" value="&lt;font style=&quot;font-size: 16px;&quot;&gt;FPGA&lt;/font&gt;" style="rounded=0;whiteSpace=wrap;html=1;" vertex="1" parent="1">
          <mxGeometry x="160" y="280" width="80" height="200" as="geometry" />
        </mxCell>
        <mxCell id="X28_V8tub5rkXU_Ef_fL-7" style="edgeStyle=orthogonalEdgeStyle;rounded=0;orthogonalLoop=1;jettySize=auto;html=1;exitX=0;exitY=0.25;exitDx=0;exitDy=0;entryX=1;entryY=0.25;entryDx=0;entryDy=0;" edge="1" parent="1">
          <mxGeometry relative="1" as="geometry">
            <mxPoint x="400" y="345" as="sourcePoint" />
            <mxPoint x="240" y="345" as="targetPoint" />
          </mxGeometry>
        </mxCell>
        <mxCell id="X28_V8tub5rkXU_Ef_fL-8" style="edgeStyle=orthogonalEdgeStyle;rounded=0;orthogonalLoop=1;jettySize=auto;html=1;exitX=0;exitY=0.5;exitDx=0;exitDy=0;" edge="1" parent="1" source="X28_V8tub5rkXU_Ef_fL-2" target="X28_V8tub5rkXU_Ef_fL-1">
          <mxGeometry relative="1" as="geometry" />
        </mxCell>
        <mxCell id="X28_V8tub5rkXU_Ef_fL-9" style="edgeStyle=orthogonalEdgeStyle;rounded=0;orthogonalLoop=1;jettySize=auto;html=1;exitX=0;exitY=0.75;exitDx=0;exitDy=0;entryX=1;entryY=0.75;entryDx=0;entryDy=0;startArrow=classic;startFill=1;" edge="1" parent="1" source="X28_V8tub5rkXU_Ef_fL-2" target="X28_V8tub5rkXU_Ef_fL-1">
          <mxGeometry relative="1" as="geometry" />
        </mxCell>
        <mxCell id="X28_V8tub5rkXU_Ef_fL-2" value="&lt;font style=&quot;font-size: 16px;&quot;&gt;MCU&lt;/font&gt;" style="rounded=0;whiteSpace=wrap;html=1;" vertex="1" parent="1">
          <mxGeometry x="400" y="280" width="80" height="200" as="geometry" />
        </mxCell>
        <mxCell id="X28_V8tub5rkXU_Ef_fL-10" value="" style="endArrow=none;html=1;rounded=0;" edge="1" parent="1">
          <mxGeometry width="50" height="50" relative="1" as="geometry">
            <mxPoint x="320" y="435" as="sourcePoint" />
            <mxPoint x="330" y="425" as="targetPoint" />
          </mxGeometry>
        </mxCell>
        <mxCell id="X28_V8tub5rkXU_Ef_fL-11" value="16" style="text;html=1;align=center;verticalAlign=middle;whiteSpace=wrap;rounded=0;" vertex="1" parent="1">
          <mxGeometry x="320" y="430" width="20" height="15" as="geometry" />
        </mxCell>
        <mxCell id="X28_V8tub5rkXU_Ef_fL-12" value="DATA" style="text;html=1;align=center;verticalAlign=middle;whiteSpace=wrap;rounded=0;" vertex="1" parent="1">
          <mxGeometry x="265" y="413" width="40" height="20" as="geometry" />
        </mxCell>
        <mxCell id="X28_V8tub5rkXU_Ef_fL-13" value="RnW" style="text;html=1;align=center;verticalAlign=middle;whiteSpace=wrap;rounded=0;" vertex="1" parent="1">
          <mxGeometry x="265" y="362" width="40" height="20" as="geometry" />
        </mxCell>
        <mxCell id="X28_V8tub5rkXU_Ef_fL-14" value="CLK" style="text;html=1;align=center;verticalAlign=middle;whiteSpace=wrap;rounded=0;" vertex="1" parent="1">
          <mxGeometry x="265" y="327" width="40" height="20" as="geometry" />
        </mxCell>
        <mxCell id="X28_V8tub5rkXU_Ef_fL-15" style="edgeStyle=orthogonalEdgeStyle;rounded=0;orthogonalLoop=1;jettySize=auto;html=1;exitX=0;exitY=0.25;exitDx=0;exitDy=0;entryX=1;entryY=0.25;entryDx=0;entryDy=0;" edge="1" parent="1">
          <mxGeometry relative="1" as="geometry">
            <mxPoint x="400" y="310" as="sourcePoint" />
            <mxPoint x="240" y="310" as="targetPoint" />
          </mxGeometry>
        </mxCell>
        <mxCell id="X28_V8tub5rkXU_Ef_fL-16" value="IX" style="text;html=1;align=center;verticalAlign=middle;whiteSpace=wrap;rounded=0;" vertex="1" parent="1">
          <mxGeometry x="265" y="292" width="40" height="20" as="geometry" />
        </mxCell>
      </root>
    </mxGraphModel>
  </diagram>
</mxfile>
